<svg width="806" height="448" xmlns="http://www.w3.org/2000/svg" xmlns:xlink="http://www.w3.org/1999/xlink" overflow="hidden"><defs><clipPath id="clip0"><rect x="237" y="136" width="806" height="448"/></clipPath><clipPath id="clip1"><rect x="237" y="137" width="805" height="446"/></clipPath><clipPath id="clip2"><rect x="305" y="151" width="722" height="367"/></clipPath><clipPath id="clip3"><rect x="305" y="151" width="722" height="367"/></clipPath><clipPath id="clip4"><rect x="305" y="151" width="722" height="367"/></clipPath><clipPath id="clip5"><rect x="305" y="151" width="722" height="367"/></clipPath><clipPath id="clip6"><rect x="305" y="151" width="722" height="367"/></clipPath><clipPath id="clip7"><rect x="237" y="137" width="805" height="446"/></clipPath><clipPath id="clip8"><rect x="237" y="137" width="805" height="446"/></clipPath><clipPath id="clip9"><rect x="237" y="137" width="805" height="446"/></clipPath><clipPath id="clip10"><rect x="237" y="137" width="805" height="446"/></clipPath><clipPath id="clip11"><rect x="237" y="137" width="805" height="446"/></clipPath><clipPath id="clip12"><rect x="237" y="137" width="805" height="446"/></clipPath><clipPath id="clip13"><rect x="237" y="137" width="805" height="446"/></clipPath><clipPath id="clip14"><rect x="237" y="137" width="805" height="446"/></clipPath><clipPath id="clip15"><rect x="237" y="137" width="805" height="446"/></clipPath><clipPath id="clip16"><rect x="237" y="137" width="805" height="446"/></clipPath><clipPath id="clip17"><rect x="237" y="137" width="805" height="446"/></clipPath><clipPath id="clip18"><rect x="237" y="137" width="805" height="446"/></clipPath><clipPath id="clip19"><rect x="237" y="137" width="805" height="446"/></clipPath><clipPath id="clip20"><rect x="237" y="137" width="805" height="446"/></clipPath><clipPath id="clip21"><rect x="237" y="137" width="805" height="446"/></clipPath><clipPath id="clip22"><rect x="237" y="137" width="805" height="446"/></clipPath><clipPath id="clip23"><rect x="237" y="137" width="805" height="446"/></clipPath><clipPath id="clip24"><rect x="237" y="137" width="805" height="446"/></clipPath><clipPath id="clip25"><rect x="237" y="137" width="805" height="446"/></clipPath><clipPath id="clip26"><rect x="237" y="137" width="805" height="446"/></clipPath><clipPath id="clip27"><rect x="237" y="137" width="805" height="446"/></clipPath><clipPath id="clip28"><rect x="237" y="137" width="805" height="446"/></clipPath><clipPath id="clip29"><rect x="237" y="137" width="805" height="446"/></clipPath><clipPath id="clip30"><rect x="237" y="137" width="805" height="446"/></clipPath><clipPath id="clip31"><rect x="237" y="137" width="805" height="446"/></clipPath><clipPath id="clip32"><rect x="237" y="137" width="805" height="446"/></clipPath><clipPath id="clip33"><rect x="237" y="137" width="805" height="446"/></clipPath><clipPath id="clip34"><rect x="237" y="137" width="805" height="446"/></clipPath><clipPath id="clip35"><rect x="237" y="137" width="805" height="446"/></clipPath><clipPath id="clip36"><rect x="237" y="137" width="805" height="446"/></clipPath><clipPath id="clip37"><rect x="237" y="137" width="805" height="446"/></clipPath><clipPath id="clip38"><rect x="237" y="137" width="805" height="446"/></clipPath><clipPath id="clip39"><rect x="237" y="137" width="805" height="446"/></clipPath><clipPath id="clip40"><rect x="237" y="137" width="805" height="446"/></clipPath><clipPath id="clip41"><rect x="237" y="137" width="805" height="446"/></clipPath><clipPath id="clip42"><rect x="237" y="137" width="805" height="446"/></clipPath><clipPath id="clip43"><rect x="237" y="137" width="805" height="446"/></clipPath><clipPath id="clip44"><rect x="237" y="137" width="805" height="446"/></clipPath><clipPath id="clip45"><rect x="237" y="137" width="805" height="446"/></clipPath><clipPath id="clip46"><rect x="237" y="137" width="805" height="446"/></clipPath><clipPath id="clip47"><rect x="237" y="137" width="805" height="446"/></clipPath><clipPath id="clip48"><rect x="237" y="137" width="805" height="446"/></clipPath><clipPath id="clip49"><rect x="237" y="137" width="805" height="446"/></clipPath></defs><g clip-path="url(#clip0)" transform="translate(-237 -136)"><rect x="238" y="137" width="804" height="446" fill="#FFFFFF"/><g clip-path="url(#clip1)"><rect x="306" y="152" width="720" height="365" stroke="#000000" stroke-width="1.66667" stroke-linejoin="round" stroke-miterlimit="10" fill="none"/></g><g clip-path="url(#clip2)"><path d="M340 198 394 198 394 517 340 517ZM700 246 754 246 754 517 700 517Z" fill="#006073"/></g><g clip-path="url(#clip3)"><path d="M400 254 453 254 453 517 400 517ZM760 313 813 313 813 517 760 517Z" fill="#91D3C0"/></g><g clip-path="url(#clip4)"><path d="M459 293 513 293 513 517 459 517ZM819 366 873 366 873 517 819 517Z" fill="#EBD7A5"/></g><g clip-path="url(#clip5)"><path d="M518 358 572 358 572 517 518 517ZM879 407 932 407 932 517 879 517Z" fill="#CC6602"/></g><g clip-path="url(#clip6)"><path d="M578 375 631 375 631 517 578 517ZM938 410 992 410 992 517 938 517Z" fill="#AE2012"/></g><g clip-path="url(#clip7)"><path d="M0 0 0.000104987 365" stroke="#000000" stroke-width="1.66667" stroke-linejoin="round" stroke-miterlimit="10" fill="none" fill-rule="evenodd" transform="matrix(1 0 0 -1 306 517)"/></g><g clip-path="url(#clip8)"><path d="M301 517 306 517M301 465 306 465M301 413 306 413M301 360 306 360M301 308 306 308M301 256 306 256M301 204 306 204M301 152 306 152" stroke="#000000" stroke-width="1.66667" stroke-linejoin="round" stroke-miterlimit="10" fill="none"/></g><g clip-path="url(#clip9)"><path d="M306 517 1026 517" stroke="#000000" stroke-width="1.66667" stroke-linejoin="round" stroke-miterlimit="10" fill="none" fill-rule="evenodd"/></g><g clip-path="url(#clip10)"><rect x="469" y="525" width="33" height="16" fill="#FFFFFF"/></g><g clip-path="url(#clip11)"><rect x="837" y="525" width="18" height="16" fill="#FFFFFF"/></g><g clip-path="url(#clip12)"><text font-family="Times New Roman,Times New Roman_MSFontService,sans-serif" font-weight="400" font-size="12" transform="translate(353.354 189)">12.24</text></g><g clip-path="url(#clip13)"><text font-family="Times New Roman,Times New Roman_MSFontService,sans-serif" font-weight="400" font-size="12" transform="translate(713.732 238)">10.37</text></g><g clip-path="url(#clip14)"><text font-family="Times New Roman,Times New Roman_MSFontService,sans-serif" font-weight="400" font-size="12" transform="translate(412.792 245)">10.09</text></g><g clip-path="url(#clip15)"><text font-family="Times New Roman,Times New Roman_MSFontService,sans-serif" font-weight="400" font-size="12" transform="translate(776.17 304)">7.83</text></g><g clip-path="url(#clip16)"><text font-family="Times New Roman,Times New Roman_MSFontService,sans-serif" font-weight="400" font-size="12" transform="translate(475.23 284)">8.58</text></g><g clip-path="url(#clip17)"><text font-family="Times New Roman,Times New Roman_MSFontService,sans-serif" font-weight="400" font-size="12" transform="translate(835.609 357)">5.79</text></g><g clip-path="url(#clip18)"><text font-family="Times New Roman,Times New Roman_MSFontService,sans-serif" font-weight="400" font-size="12" transform="translate(534.669 349)">6.09</text></g><g clip-path="url(#clip19)"><text font-family="Times New Roman,Times New Roman_MSFontService,sans-serif" font-weight="400" font-size="12" transform="translate(895.047 398)">4.23</text></g><g clip-path="url(#clip20)"><text font-family="Times New Roman,Times New Roman_MSFontService,sans-serif" font-weight="400" font-size="12" transform="translate(594.107 366)">5.46</text></g><g clip-path="url(#clip21)"><text font-family="Times New Roman,Times New Roman_MSFontService,sans-serif" font-weight="400" font-size="12" transform="translate(954.485 401)">4.12</text></g><g clip-path="url(#clip22)"><text font-family="Times New Roman,Times New Roman_MSFontService,sans-serif" font-weight="400" font-size="14" transform="translate(286.633 521)">0</text></g><g clip-path="url(#clip23)"><text font-family="Times New Roman,Times New Roman_MSFontService,sans-serif" font-weight="400" font-size="14" transform="translate(286.633 469)">2</text></g><g clip-path="url(#clip24)"><text font-family="Times New Roman,Times New Roman_MSFontService,sans-serif" font-weight="400" font-size="14" transform="translate(286.633 417)">4</text></g><g clip-path="url(#clip25)"><text font-family="Times New Roman,Times New Roman_MSFontService,sans-serif" font-weight="400" font-size="14" transform="translate(286.633 364)">6</text></g><g clip-path="url(#clip26)"><text font-family="Times New Roman,Times New Roman_MSFontService,sans-serif" font-weight="400" font-size="14" transform="translate(286.633 312)">8</text></g><g clip-path="url(#clip27)"><text font-family="Times New Roman,Times New Roman_MSFontService,sans-serif" font-weight="400" font-size="14" transform="translate(279.633 260)">10</text></g><g clip-path="url(#clip28)"><text font-family="Times New Roman,Times New Roman_MSFontService,sans-serif" font-weight="400" font-size="14" transform="translate(279.633 208)">12</text></g><g clip-path="url(#clip29)"><text font-family="Times New Roman,Times New Roman_MSFontService,sans-serif" font-weight="400" font-size="14" transform="translate(279.633 156)">14</text></g><g clip-path="url(#clip30)"><rect x="469" y="525" width="33" height="16" fill="#FFFFFF"/></g><g clip-path="url(#clip31)"><text font-family="Times New Roman,Times New Roman_MSFontService,sans-serif" font-weight="400" font-size="14" transform="translate(469.407 537)">X-ray</text></g><g clip-path="url(#clip32)"><rect x="837" y="525" width="18" height="16" fill="#FFFFFF"/></g><g clip-path="url(#clip33)"><text font-family="Times New Roman,Times New Roman_MSFontService,sans-serif" font-weight="400" font-size="14" transform="translate(837.162 537)">CT</text></g><g clip-path="url(#clip34)"><text fill="#262626" font-family="Times New Roman,Times New Roman_MSFontService,sans-serif" font-weight="400" font-size="19" transform="matrix(6.12323e-17 -1 1 6.12323e-17 271.167 437)">Detection speed(</text></g><g clip-path="url(#clip35)"><text fill="#262626" font-family="Times New Roman,Times New Roman_MSFontService,sans-serif" font-weight="400" font-size="19" transform="matrix(6.12323e-17 -1 1 6.12323e-17 271.167 311)">ms</text></g><g clip-path="url(#clip36)"><text fill="#262626" font-family="Times New Roman,Times New Roman_MSFontService,sans-serif" font-weight="400" font-size="19" transform="matrix(6.12323e-17 -1 1 6.12323e-17 271.167 289)">/image)</text></g><g clip-path="url(#clip37)"><text font-family="Times New Roman,Times New Roman_MSFontService,sans-serif" font-weight="400" font-size="19" transform="translate(621.086 562)">Images data</text></g><g clip-path="url(#clip38)"><rect x="887" y="172" width="26" height="7" fill="#006073"/></g><g clip-path="url(#clip39)"><text font-family="Times New Roman,Times New Roman_MSFontService,sans-serif" font-weight="400" font-size="14" transform="translate(915.301 180)">ResNet-50</text></g><g clip-path="url(#clip40)"><rect x="887" y="199" width="26" height="7" fill="#91D3C0"/></g><g clip-path="url(#clip41)"><text font-family="Times New Roman,Times New Roman_MSFontService,sans-serif" font-weight="400" font-size="14" transform="translate(915.301 206)">VGGNet-16</text></g><g clip-path="url(#clip42)"><rect x="887" y="226" width="26" height="7" fill="#EBD7A5"/></g><g clip-path="url(#clip43)"><text font-family="Times New Roman,Times New Roman_MSFontService,sans-serif" font-weight="400" font-size="14" transform="translate(915.301 233)">i-CapsNet</text></g><g clip-path="url(#clip44)"><rect x="887" y="252" width="26" height="7" fill="#CC6602"/></g><g clip-path="url(#clip45)"><text font-family="Times New Roman,Times New Roman_MSFontService,sans-serif" font-weight="400" font-size="14" transform="translate(915.301 260)">MGMADS-3</text></g><g clip-path="url(#clip46)"><rect x="887" y="279" width="26" height="7" fill="#AE2012"/></g><g clip-path="url(#clip47)"><text font-family="Times New Roman,Times New Roman_MSFontService,sans-serif" font-weight="400" font-size="14" transform="translate(915.301 287)">RMT-Net</text></g><g clip-path="url(#clip48)"><path d="M887.5 309.5 912.5 309.5" stroke="#FFFFFF" stroke-width="3" stroke-linecap="round" stroke-linejoin="round" stroke-miterlimit="10" fill="none" fill-rule="evenodd"/></g><g clip-path="url(#clip49)"><text fill="#FFFFFF" font-family="Times New Roman,Times New Roman_MSFontService,sans-serif" font-weight="400" font-size="14" transform="translate(915.301 313)">1</text></g><rect x="887" y="170" width="26" height="12" fill="#006073"/><rect x="887" y="196" width="26" height="12" fill="#91D3C0"/><rect x="887" y="223" width="26" height="11" fill="#EBD7A5"/><rect x="887" y="250" width="26" height="11" fill="#CC6602"/><rect x="887" y="277" width="26" height="11" fill="#AE2012"/><rect x="875" y="163" width="127" height="136" stroke="#000000" stroke-width="1.66667" stroke-miterlimit="8" fill="none"/></g></svg>