<svg width="386" height="639" xmlns="http://www.w3.org/2000/svg" xmlns:xlink="http://www.w3.org/1999/xlink" overflow="hidden"><defs><clipPath id="clip0"><rect x="405" y="23" width="386" height="639"/></clipPath></defs><g clip-path="url(#clip0)" transform="translate(-405 -23)"><path d="M406.5 32.3336C406.5 28.5595 409.56 25.5001 413.334 25.5001L557.667 25.5001C561.441 25.5001 564.5 28.5595 564.5 32.3336L564.5 59.6665C564.5 63.4406 561.441 66.5 557.667 66.5L413.334 66.5C409.56 66.5 406.5 63.4406 406.5 59.6665Z" stroke="#000000" stroke-width="1.33333" stroke-miterlimit="8" fill="#D6DCE5" fill-rule="evenodd"/><text font-family="Times New Roman,Times New Roman_MSFontService,sans-serif" font-weight="400" font-size="24" transform="translate(427.282 54)">Image input</text><path d="M406.5 85.5002C406.5 81.6341 409.634 78.5001 413.5 78.5001L557.5 78.5001C561.366 78.5001 564.5 81.6341 564.5 85.5002L564.5 113.5C564.5 117.366 561.366 120.5 557.5 120.5L413.5 120.5C409.634 120.5 406.5 117.366 406.5 113.5Z" stroke="#000000" stroke-width="1.33333" stroke-miterlimit="8" fill="#FFFFFF" fill-rule="evenodd"/><text font-family="Times New Roman,Times New Roman_MSFontService,sans-serif" font-weight="400" font-size="24" transform="translate(436.949 108)">256<tspan font-family="SimHei,SimHei_MSFontService,sans-serif" font-size="24" x="36" y="0">×</tspan>256</text><path d="M406.5 193.334C406.5 189.56 409.56 186.5 413.334 186.5L557.667 186.5C561.441 186.5 564.5 189.56 564.5 193.334L564.5 220.667C564.5 224.441 561.441 227.5 557.667 227.5L413.334 227.5C409.56 227.5 406.5 224.441 406.5 220.667Z" stroke="#000000" stroke-width="1.33333" stroke-miterlimit="8" fill="#D9D9D9" fill-rule="evenodd"/><text font-family="Times New Roman,Times New Roman_MSFontService,sans-serif" font-weight="400" font-size="24" transform="translate(449.282 215)">Stage 1</text><path d="M406.5 139.5C406.5 135.634 409.634 132.5 413.5 132.5L557.5 132.5C561.366 132.5 564.5 135.634 564.5 139.5L564.5 167.5C564.5 171.366 561.366 174.5 557.5 174.5L413.5 174.5C409.634 174.5 406.5 171.366 406.5 167.5Z" stroke="#000000" stroke-width="1.33333" stroke-miterlimit="8" fill="#FFFFFF" fill-rule="evenodd"/><text font-family="Times New Roman,Times New Roman_MSFontService,sans-serif" font-weight="400" font-size="24" transform="translate(436.949 162)">128<tspan font-family="SimHei,SimHei_MSFontService,sans-serif" font-size="24" x="36" y="0">×</tspan>128</text><path d="M406.5 300.5C406.5 296.634 409.634 293.5 413.5 293.5L557.5 293.5C561.366 293.5 564.5 296.634 564.5 300.5L564.5 328.5C564.5 332.366 561.366 335.5 557.5 335.5L413.5 335.5C409.634 335.5 406.5 332.366 406.5 328.5Z" stroke="#000000" stroke-width="1.33333" stroke-miterlimit="8" fill="#D9D9D9" fill-rule="evenodd"/><text font-family="Times New Roman,Times New Roman_MSFontService,sans-serif" font-weight="400" font-size="24" transform="translate(449.282 323)">Stage 2</text><path d="M406.5 247.334C406.5 243.56 409.56 240.5 413.334 240.5L557.667 240.5C561.441 240.5 564.5 243.56 564.5 247.334L564.5 274.667C564.5 278.441 561.441 281.5 557.667 281.5L413.334 281.5C409.56 281.5 406.5 278.441 406.5 274.667Z" stroke="#000000" stroke-width="1.33333" stroke-miterlimit="8" fill="#FFFFFF" fill-rule="evenodd"/><text font-family="Times New Roman,Times New Roman_MSFontService,sans-serif" font-weight="400" font-size="24" transform="translate(448.949 269)">64<tspan font-family="SimHei,SimHei_MSFontService,sans-serif" font-size="24" x="24" y="0">×</tspan>64</text><path d="M406.5 406.334C406.5 402.56 409.56 399.5 413.334 399.5L557.667 399.5C561.441 399.5 564.5 402.56 564.5 406.334L564.5 433.667C564.5 437.441 561.441 440.5 557.667 440.5L413.334 440.5C409.56 440.5 406.5 437.441 406.5 433.667Z" stroke="#000000" stroke-width="1.33333" stroke-miterlimit="8" fill="#D9D9D9" fill-rule="evenodd"/><text font-family="Times New Roman,Times New Roman_MSFontService,sans-serif" font-weight="400" font-size="24" transform="translate(449.282 428)">Stage 3</text><path d="M406.5 352.334C406.5 348.56 409.56 345.5 413.334 345.5L557.667 345.5C561.441 345.5 564.5 348.56 564.5 352.334L564.5 379.667C564.5 383.441 561.441 386.5 557.667 386.5L413.334 386.5C409.56 386.5 406.5 383.441 406.5 379.667Z" stroke="#000000" stroke-width="1.33333" stroke-miterlimit="8" fill="#FFFFFF" fill-rule="evenodd"/><text font-family="Times New Roman,Times New Roman_MSFontService,sans-serif" font-weight="400" font-size="24" transform="translate(448.949 374)">32<tspan font-family="SimHei,SimHei_MSFontService,sans-serif" font-size="24" x="24" y="0">×</tspan>32</text><path d="M406.5 511.5C406.5 507.634 409.634 504.5 413.5 504.5L557.5 504.5C561.366 504.5 564.5 507.634 564.5 511.5L564.5 539.5C564.5 543.366 561.366 546.5 557.5 546.5L413.5 546.5C409.634 546.5 406.5 543.366 406.5 539.5Z" stroke="#000000" stroke-width="1.33333" stroke-miterlimit="8" fill="#D9D9D9" fill-rule="evenodd"/><text font-family="Times New Roman,Times New Roman_MSFontService,sans-serif" font-weight="400" font-size="24" transform="translate(449.282 533)">Stage 4</text><path d="M406.5 457.5C406.5 453.634 409.634 450.5 413.5 450.5L557.5 450.5C561.366 450.5 564.5 453.634 564.5 457.5L564.5 485.5C564.5 489.366 561.366 492.5 557.5 492.5L413.5 492.5C409.634 492.5 406.5 489.366 406.5 485.5Z" stroke="#000000" stroke-width="1.33333" stroke-miterlimit="8" fill="#FFFFFF" fill-rule="evenodd"/><text font-family="Times New Roman,Times New Roman_MSFontService,sans-serif" font-weight="400" font-size="24" transform="translate(448.949 480)">16<tspan font-family="SimHei,SimHei_MSFontService,sans-serif" font-size="24" x="24" y="0">×</tspan>16</text><path d="M406.5 618.5C406.5 614.634 409.634 611.5 413.5 611.5L557.5 611.5C561.366 611.5 564.5 614.634 564.5 618.5L564.5 646.5C564.5 650.366 561.366 653.5 557.5 653.5L413.5 653.5C409.634 653.5 406.5 650.366 406.5 646.5Z" stroke="#000000" stroke-width="1.33333" stroke-miterlimit="8" fill="#FFFFFF" fill-rule="evenodd"/><text font-family="Times New Roman,Times New Roman_MSFontService,sans-serif" font-weight="400" font-size="24" transform="translate(460.949 641)">1<tspan font-family="SimHei,SimHei_MSFontService,sans-serif" font-size="24" x="12" y="0">×</tspan>1</text><path d="M406.5 564.5C406.5 560.634 409.634 557.5 413.5 557.5L557.5 557.5C561.366 557.5 564.5 560.634 564.5 564.5L564.5 592.5C564.5 596.366 561.366 599.5 557.5 599.5L413.5 599.5C409.634 599.5 406.5 596.366 406.5 592.5Z" stroke="#000000" stroke-width="1.33333" stroke-miterlimit="8" fill="#FFFFFF" fill-rule="evenodd"/><text font-family="Times New Roman,Times New Roman_MSFontService,sans-serif" font-weight="400" font-size="24" transform="translate(460.949 587)">1<tspan font-family="SimHei,SimHei_MSFontService,sans-serif" font-size="24" x="12" y="0">×</tspan>1</text><path d="M617.5 32.3336C617.5 28.5595 620.56 25.5001 624.334 25.5001L768.667 25.5001C772.441 25.5001 775.5 28.5595 775.5 32.3336L775.5 59.6665C775.5 63.4406 772.441 66.5 768.667 66.5L624.334 66.5C620.56 66.5 617.5 63.4406 617.5 59.6665Z" stroke="#000000" stroke-width="1.33333" stroke-miterlimit="8" fill="#D6DCE5" fill-rule="evenodd"/><text font-family="Times New Roman,Times New Roman_MSFontService,sans-serif" font-weight="400" font-size="24" transform="translate(636.168 54)">Layer Name</text><path d="M617.5 85.5002C617.5 81.6341 620.634 78.5001 624.5 78.5001L768.5 78.5001C772.366 78.5001 775.5 81.6341 775.5 85.5002L775.5 113.5C775.5 117.366 772.366 120.5 768.5 120.5L624.5 120.5C620.634 120.5 617.5 117.366 617.5 113.5Z" stroke="#000000" stroke-width="1.33333" stroke-miterlimit="8" fill="#FFFFFF" fill-rule="evenodd"/><text font-family="Times New Roman,Times New Roman_MSFontService,sans-serif" font-weight="400" font-size="24" transform="translate(671.168 108)">Stem</text><path d="M617.5 193.334C617.5 189.56 620.56 186.5 624.334 186.5L768.667 186.5C772.441 186.5 775.5 189.56 775.5 193.334L775.5 220.667C775.5 224.441 772.441 227.5 768.667 227.5L624.334 227.5C620.56 227.5 617.5 224.441 617.5 220.667Z" stroke="#000000" stroke-width="1.33333" stroke-miterlimit="8" fill="#DBDBDB" fill-rule="evenodd"/><text font-family="Times New Roman,Times New Roman_MSFontService,sans-serif" font-weight="400" font-size="24" transform="translate(646.935 215)">VIT<tspan font-size="24" x="37.8" y="0">-</tspan>RMT</text><path d="M602.5 139.5C602.5 135.634 605.634 132.5 609.5 132.5L783.5 132.5C787.366 132.5 790.5 135.634 790.5 139.5L790.5 167.5C790.5 171.366 787.366 174.5 783.5 174.5L609.5 174.5C605.634 174.5 602.5 171.366 602.5 167.5Z" stroke="#000000" stroke-width="1.33333" stroke-miterlimit="8" fill="#FFFFFF" fill-rule="evenodd"/><text font-family="Times New Roman,Times New Roman_MSFontService,sans-serif" font-weight="400" font-size="21" transform="translate(622.168 161)">patch aggregation</text><path d="M617.5 300.5C617.5 296.634 620.634 293.5 624.5 293.5L768.5 293.5C772.366 293.5 775.5 296.634 775.5 300.5L775.5 328.5C775.5 332.366 772.366 335.5 768.5 335.5L624.5 335.5C620.634 335.5 617.5 332.366 617.5 328.5Z" stroke="#000000" stroke-width="1.33333" stroke-miterlimit="8" fill="#DBDBDB" fill-rule="evenodd"/><text font-family="Times New Roman,Times New Roman_MSFontService,sans-serif" font-weight="400" font-size="24" transform="translate(650.935 323)">VT<tspan font-size="24" x="29.8" y="0">-</tspan>RMT</text><path d="M606.5 404.5C606.5 400.634 609.634 397.5 613.5 397.5L779.5 397.5C783.366 397.5 786.5 400.634 786.5 404.5L786.5 432.5C786.5 436.366 783.366 439.5 779.5 439.5L613.5 439.5C609.634 439.5 606.5 436.366 606.5 432.5Z" stroke="#000000" stroke-width="1.33333" stroke-miterlimit="8" fill="#DBDBDB" fill-rule="evenodd"/><text font-family="Times New Roman,Times New Roman_MSFontService,sans-serif" font-weight="400" font-size="24" transform="translate(621.085 426)">MSA+LMHSA</text><path d="M617.5 511.5C617.5 507.634 620.634 504.5 624.5 504.5L768.5 504.5C772.366 504.5 775.5 507.634 775.5 511.5L775.5 539.5C775.5 543.366 772.366 546.5 768.5 546.5L624.5 546.5C620.634 546.5 617.5 543.366 617.5 539.5Z" stroke="#000000" stroke-width="1.33333" stroke-miterlimit="8" fill="#DBDBDB" fill-rule="evenodd"/><text font-family="Times New Roman,Times New Roman_MSFontService,sans-serif" font-weight="400" font-size="24" transform="translate(647.835 533)">Res-RMT</text><path d="M617.5 618.5C617.5 614.634 620.634 611.5 624.5 611.5L768.5 611.5C772.366 611.5 775.5 614.634 775.5 618.5L775.5 646.5C775.5 650.366 772.366 653.5 768.5 653.5L624.5 653.5C620.634 653.5 617.5 650.366 617.5 646.5Z" stroke="#000000" stroke-width="1.33333" stroke-miterlimit="8" fill="#FFFFFF" fill-rule="evenodd"/><text font-family="Times New Roman,Times New Roman_MSFontService,sans-serif" font-weight="400" font-size="24" transform="translate(649.835 641)">Classifier</text><path d="M617.5 564.5C617.5 560.634 620.634 557.5 624.5 557.5L768.5 557.5C772.366 557.5 775.5 560.634 775.5 564.5L775.5 592.5C775.5 596.366 772.366 599.5 768.5 599.5L624.5 599.5C620.634 599.5 617.5 596.366 617.5 592.5Z" stroke="#000000" stroke-width="1.33333" stroke-miterlimit="8" fill="#FFFFFF" fill-rule="evenodd"/><text font-family="Times New Roman,Times New Roman_MSFontService,sans-serif" font-weight="400" font-size="24" transform="translate(681.168 587)">FC</text><path d="M602.5 247.334C602.5 243.56 605.56 240.5 609.334 240.5L783.667 240.5C787.441 240.5 790.5 243.56 790.5 247.334L790.5 274.667C790.5 278.441 787.441 281.5 783.667 281.5L609.334 281.5C605.56 281.5 602.5 278.441 602.5 274.667Z" stroke="#000000" stroke-width="1.33333" stroke-miterlimit="8" fill="#FFFFFF" fill-rule="evenodd"/><text font-family="Times New Roman,Times New Roman_MSFontService,sans-serif" font-weight="400" font-size="21" transform="translate(622.168 268)">patch aggregation</text><path d="M602.5 353.334C602.5 349.56 605.56 346.5 609.334 346.5L783.667 346.5C787.441 346.5 790.5 349.56 790.5 353.334L790.5 380.667C790.5 384.441 787.441 387.5 783.667 387.5L609.334 387.5C605.56 387.5 602.5 384.441 602.5 380.667Z" stroke="#000000" stroke-width="1.33333" stroke-miterlimit="8" fill="#FFFFFF" fill-rule="evenodd"/><text font-family="Times New Roman,Times New Roman_MSFontService,sans-serif" font-weight="400" font-size="21" transform="translate(622.168 375)">patch aggregation</text><path d="M602.5 459.5C602.5 455.634 605.634 452.5 609.5 452.5L783.5 452.5C787.366 452.5 790.5 455.634 790.5 459.5L790.5 487.5C790.5 491.366 787.366 494.5 783.5 494.5L609.5 494.5C605.634 494.5 602.5 491.366 602.5 487.5Z" stroke="#000000" stroke-width="1.33333" stroke-miterlimit="8" fill="#FFFFFF" fill-rule="evenodd"/><text font-family="Times New Roman,Times New Roman_MSFontService,sans-serif" font-weight="400" font-size="21" transform="translate(622.168 481)">patch aggregation</text><path d="M485.833 66.5001 485.833 71.9572 485.167 71.9572 485.167 66.5001ZM489.5 70.6238 485.5 78.6238 481.5 70.6239Z"/><path d="M485.833 120.5 485.833 125.957 485.167 125.957 485.167 120.5ZM489.5 124.624 485.5 132.624 481.5 124.624Z"/><path d="M485.833 174.5 485.833 179.957 485.167 179.957 485.167 174.5ZM489.5 178.624 485.5 186.624 481.5 178.624Z"/><path d="M485.833 227.5 485.833 232.957 485.167 232.957 485.167 227.5ZM489.5 231.624 485.5 239.624 481.5 231.624Z"/><path d="M485.833 281.5 485.833 286.957 485.167 286.957 485.167 281.5ZM489.5 285.624 485.5 293.624 481.5 285.624Z"/><path d="M485.833 335.5 485.833 338.978 485.167 338.978 485.167 335.5ZM489.5 337.645 485.5 345.645 481.5 337.645Z"/><path d="M485.833 386.5 485.833 391.957 485.167 391.957 485.167 386.5ZM489.5 390.624 485.5 398.624 481.5 390.624Z"/><path d="M485.833 440.5 485.833 443.978 485.167 443.978 485.167 440.5ZM489.5 442.645 485.5 450.645 481.5 442.645Z"/><path d="M485.833 492.5 485.833 497.957 485.167 497.957 485.167 492.5ZM489.5 496.624 485.5 504.624 481.5 496.624Z"/><path d="M485.833 546.5 485.833 551.71 485.167 551.71 485.167 546.5ZM489.5 550.376 485.5 558.376 481.5 550.376Z"/><path d="M485.833 599.5 485.833 604.957 485.167 604.957 485.167 599.5ZM489.5 603.624 485.5 611.624 481.5 603.624Z"/><path d="M696.833 66.5001 696.833 71.7097 696.167 71.7097 696.167 66.5001ZM700.5 70.3763 696.5 78.3764 692.5 70.3764Z"/><path d="M696.833 120.5 696.833 126.205 696.167 126.205 696.167 120.5ZM700.5 124.871 696.5 132.871 692.5 124.871Z"/><path d="M0.333333-2.88653e-06 0.333381 5.45711-0.333286 5.45712-0.333333 2.88653e-06ZM4.00004 4.12374 0.000104987 12.1238-3.99996 4.12381Z" transform="matrix(-1 0 0 1 696.5 174.5)"/><path d="M696.833 227.5 696.833 232.957 696.167 232.957 696.167 227.5ZM700.5 231.624 696.5 239.624 692.5 231.624Z"/><path d="M696.833 281.5 696.833 286.957 696.167 286.957 696.167 281.5ZM700.5 285.624 696.5 293.624 692.5 285.624Z"/><path d="M0.333333-3.14305e-06 0.333375 4.46761-0.333291 4.46761-0.333333 3.14305e-06ZM4.00003 3.13424 0.000104987 11.1343-3.99997 3.13432Z" transform="matrix(-1 0 0 1 696.5 335.5)"/><path d="M0.333333-3.62674e-06 0.333366 2.98267-0.333301 2.98268-0.333333 3.62674e-06ZM4.00002 1.6493 0.000104987 9.64934-3.99998 1.64939Z" transform="matrix(-1 0 0 1 696.5 387.5)"/><path d="M0.333333-2.57156e-06 0.333387 6.94204-0.33328 6.94205-0.333333 2.57156e-06ZM4.00004 5.60868 0.000104987 13.6087-3.99996 5.60875Z" transform="matrix(-1 0 0 1 696.5 439.5)"/><path d="M696.833 494.5 696.833 497.978 696.167 497.978 696.167 494.5ZM700.5 496.645 696.5 504.645 692.5 496.645Z"/><path d="M696.833 546.5 696.833 551.71 696.167 551.71 696.167 546.5ZM700.5 550.376 696.5 558.376 692.5 550.376Z"/><path d="M696.833 599.5 696.833 604.957 696.167 604.957 696.167 599.5ZM700.5 603.624 696.5 611.624 692.5 603.624Z"/></g></svg>