<svg width="595" height="683" xmlns="http://www.w3.org/2000/svg" xmlns:xlink="http://www.w3.org/1999/xlink" overflow="hidden"><defs><clipPath id="clip0"><rect x="19" y="47" width="595" height="683"/></clipPath></defs><g clip-path="url(#clip0)" transform="translate(-19 -47)"><path d="M329 125.684C329 121.992 331.992 119 335.684 119L514.316 119C518.008 119 521 121.992 521 125.684L521 550.316C521 554.008 518.008 557 514.316 557L335.684 557C331.992 557 329 554.008 329 550.316Z" stroke="#000000" stroke-width="2" stroke-miterlimit="8" stroke-dasharray="8 6" fill="#D9D9D9" fill-rule="evenodd"/><path d="M99 274.683C99 270.992 101.992 268 105.683 268L284.317 268C288.008 268 291 270.992 291 274.683L291 549.317C291 553.008 288.008 556 284.317 556L105.683 556C101.992 556 99 553.008 99 549.317Z" stroke="#000000" stroke-width="2" stroke-miterlimit="8" stroke-dasharray="8 6" fill="#D9D9D9" fill-rule="evenodd"/><path d="M346 473.5C346 465.492 352.492 459 360.5 459L478.5 459C486.508 459 493 465.492 493 473.5L493 531.5C493 539.508 486.508 546 478.5 546L360.5 546C352.492 546 346 539.508 346 531.5Z" stroke="#000000" stroke-width="2" stroke-miterlimit="8" fill="#FFCCFF" fill-rule="evenodd"/><path d="M345 418.167C345 415.313 347.313 413 350.167 413L486.833 413C489.687 413 492 415.313 492 418.167L492 438.833C492 441.687 489.687 444 486.833 444L350.167 444C347.313 444 345 441.687 345 438.833Z" stroke="#000000" stroke-width="2" stroke-miterlimit="8" fill="#66FFFF" fill-rule="evenodd"/><path d="M136 615.167C136 609.552 140.552 605 146.167 605L268.833 605C274.448 605 279 609.552 279 615.167L279 655.833C279 661.448 274.448 666 268.833 666L146.167 666C140.552 666 136 661.448 136 655.833Z" stroke="#000000" stroke-width="2.33333" stroke-miterlimit="8" fill="#F8CBAD" fill-rule="evenodd"/><text font-family="Times New Roman,Times New Roman_MSFontService,sans-serif" font-weight="400" font-size="24" transform="translate(181.327 628)">Input<tspan font-size="24" x="-30" y="29">Embedding</tspan></text><path d="M1-5.10389e-06 1.00008 15.2366-0.999922 15.2366-1 5.10389e-06ZM7.77661e-05 15.2366 4.00006 12.57 0.000104987 20.57-3.99994 12.57Z" transform="matrix(1 0 0 -1 207 686.57)"/><text font-family="Times New Roman,Times New Roman_MSFontService,sans-serif" font-weight="400" font-size="24" transform="translate(178.972 709)">Inputs</text><path d="M348 614.167C348 608.552 352.552 604 358.167 604L479.833 604C485.448 604 490 608.552 490 614.167L490 654.833C490 660.448 485.448 665 479.833 665L358.167 665C352.552 665 348 660.448 348 654.833Z" stroke="#000000" stroke-width="2.33333" stroke-miterlimit="8" fill="#F8CBAD" fill-rule="evenodd"/><text font-family="Times New Roman,Times New Roman_MSFontService,sans-serif" font-weight="400" font-size="24" transform="translate(392.543 627)">Input<tspan font-size="24" x="-30" y="29">Embedding</tspan></text><path d="M1-5.10389e-06 1.00008 15.2366-0.999922 15.2366-1 5.10389e-06ZM7.77661e-05 15.2366 4.00006 12.57 0.000104987 20.57-3.99994 12.57Z" transform="matrix(1 0 0 -1 418 685.57)"/><text font-family="Times New Roman,Times New Roman_MSFontService,sans-serif" font-weight="400" font-size="24" transform="translate(379.155 705)">Outputs</text><path d="M1-5.10389e-06 1.00008 15.2366-0.999922 15.2366-1 5.10389e-06ZM7.77661e-05 15.2366 4.00006 12.57 0.000104987 20.57-3.99994 12.57Z" transform="matrix(1 0 0 -1 207 604.57)"/><path d="M1-5.10389e-06 1.00008 15.2366-0.999922 15.2366-1 5.10389e-06ZM7.77661e-05 15.2366 4.00006 12.57 0.000104987 20.57-3.99994 12.57Z" transform="matrix(1 0 0 -1 420 603.57)"/><text font-family="Cambria Math,Cambria Math_MSFontService,sans-serif" font-weight="400" font-size="24" transform="translate(194.322 581)">⊕<tspan font-size="24" x="213.623" y="1">⊕</tspan></text><path d="M1-3.52711e-06 1.00009 24.4323-0.999914 24.4323-1 3.52711e-06ZM8.61756e-05 24.4323 4.00008 21.7657 0.000104987 29.7657-3.99992 21.7657Z" transform="matrix(1 0 0 -1 206 564.766)"/><path d="M133 477.334C133 471.074 138.074 466 144.333 466L268.667 466C274.926 466 280 471.074 280 477.334L280 522.667C280 528.926 274.926 534 268.667 534L144.333 534C138.074 534 133 528.926 133 522.667Z" stroke="#000000" stroke-width="2" stroke-miterlimit="8" fill="#FFCCFF" fill-rule="evenodd"/><text font-family="Times New Roman,Times New Roman_MSFontService,sans-serif" font-weight="400" font-size="24" transform="translate(149.61 493)">Multi<tspan font-size="24" x="53.3333" y="0">-</tspan>Head<tspan font-size="24" x="10.6667" y="29">Attention</tspan></text><path d="M0 0 0.000104987 14.236" stroke="#000000" stroke-width="2" stroke-miterlimit="8" fill="none" fill-rule="evenodd" transform="matrix(1 0 0 -1 206 465.236)"/><path d="M133 425.167C133 422.313 135.313 420 138.167 420L274.833 420C277.687 420 280 422.313 280 425.167L280 445.833C280 448.687 277.687 451 274.833 451L138.167 451C135.313 451 133 448.687 133 445.833Z" stroke="#000000" stroke-width="2" stroke-miterlimit="8" fill="#66FFFF" fill-rule="evenodd"/><text font-family="Times New Roman,Times New Roman_MSFontService,sans-serif" font-weight="400" font-size="24" transform="translate(141.41 441)">Add &amp; Norm</text><path d="M0 0 97.7496 0.000104987" stroke="#000000" stroke-width="2" stroke-miterlimit="8" fill="none" fill-rule="evenodd" transform="matrix(-1 0 0 1 205.75 550)"/><path d="M108.05 550.692 108 433" stroke="#000000" stroke-width="2" stroke-miterlimit="8" fill="none" fill-rule="evenodd"/><path d="M108 433 126.667 433 126.667 435 108 435ZM126.667 434 124 430 132 434 124 438Z"/><path d="M131 332.334C131 326.074 136.074 321 142.334 321L267.666 321C273.926 321 279 326.074 279 332.334L279 377.666C279 383.926 273.926 389 267.666 389L142.334 389C136.074 389 131 383.926 131 377.666Z" stroke="#000000" stroke-width="2" stroke-miterlimit="8" fill="#FFFFCC" fill-rule="evenodd"/><text font-family="Times New Roman,Times New Roman_MSFontService,sans-serif" font-weight="400" font-size="24" transform="translate(182.277 349)">Feed<tspan font-size="24" x="-17.3333" y="29">Forward</tspan></text><path d="M0 0 0.000104987 14.236" stroke="#000000" stroke-width="2" stroke-miterlimit="8" fill="none" fill-rule="evenodd" transform="matrix(1 0 0 -1 206 321.236)"/><path d="M132 280.167C132 277.313 134.313 275 137.167 275L273.833 275C276.687 275 279 277.313 279 280.167L279 300.833C279 303.687 276.687 306 273.833 306L137.167 306C134.313 306 132 303.687 132 300.833Z" stroke="#000000" stroke-width="2" stroke-miterlimit="8" fill="#66FFFF" fill-rule="evenodd"/><text font-family="Times New Roman,Times New Roman_MSFontService,sans-serif" font-weight="400" font-size="24" transform="translate(140.241 297)">Add &amp; Norm</text><path d="M0 0 97.7496 0.000104987" stroke="#000000" stroke-width="2" stroke-miterlimit="8" fill="none" fill-rule="evenodd" transform="matrix(-1 0 0 1 204.75 405)"/><path d="M107.05 405.692 107 288" stroke="#000000" stroke-width="2" stroke-miterlimit="8" fill="none" fill-rule="evenodd"/><path d="M107 288 125.667 288 125.667 290 107 290ZM125.667 289 123 285 131 289 123 293Z"/><path d="M1-3.52711e-06 1.00009 24.4323-0.999914 24.4323-1 3.52711e-06ZM8.61756e-05 24.4323 4.00008 21.7657 0.000104987 29.7657-3.99992 21.7657Z" transform="matrix(1 0 0 -1 204 418.766)"/><path d="M1-3.52711e-06 1.00009 24.4323-0.999914 24.4323-1 3.52711e-06ZM8.61756e-05 24.4323 4.00008 21.7657 0.000104987 29.7657-3.99992 21.7657Z" transform="matrix(1 0 0 -1 419 413.766)"/><path d="M345 326.334C345 320.074 350.074 315 356.333 315L480.667 315C486.926 315 492 320.074 492 326.334L492 371.666C492 377.926 486.926 383 480.667 383L356.333 383C350.074 383 345 377.926 345 371.666Z" stroke="#000000" stroke-width="2" stroke-miterlimit="8" fill="#FFCCFF" fill-rule="evenodd"/><text font-family="Times New Roman,Times New Roman_MSFontService,sans-serif" font-weight="400" font-size="24" transform="translate(360.826 343)">Multi<tspan font-size="24" x="53.3333" y="0">-</tspan>Head<tspan font-size="24" x="10.6667" y="29">Attention</tspan></text><path d="M0 0 0.000104987 14.236" stroke="#000000" stroke-width="2" stroke-miterlimit="8" fill="none" fill-rule="evenodd" transform="matrix(1 0 0 -1 417 315.236)"/><path d="M345 273.333C345 270.388 347.388 268 350.333 268L487.667 268C490.612 268 493 270.388 493 273.333L493 294.667C493 297.612 490.612 300 487.667 300L350.333 300C347.388 300 345 297.612 345 294.667Z" stroke="#000000" stroke-width="2" stroke-miterlimit="8" fill="#66FFFF" fill-rule="evenodd"/><text font-family="Times New Roman,Times New Roman_MSFontService,sans-serif" font-weight="400" font-size="24" transform="translate(353.336 292)">Add &amp; Norm</text><path d="M0 0 97.7496 0.000104987" stroke="#000000" stroke-width="2" stroke-miterlimit="8" fill="none" fill-rule="evenodd" transform="matrix(-1 0 0 1 516.75 403)"/><path d="M516.05 403.692 516 286" stroke="#000000" stroke-width="2" stroke-miterlimit="8" fill="none" fill-rule="evenodd"/><path d="M5.06758e-06-1 15.384-0.999922 15.384 1.00008-5.06758e-06 1ZM15.384 7.79598e-05 12.7174-3.99994 20.7174 0.000104987 12.7174 4.00006Z" transform="matrix(-1 0 0 1 517.717 285)"/><path d="M344 181.334C344 175.074 349.074 170 355.333 170L479.667 170C485.926 170 491 175.074 491 181.334L491 226.666C491 232.926 485.926 238 479.667 238L355.333 238C349.074 238 344 232.926 344 226.666Z" stroke="#000000" stroke-width="2" stroke-miterlimit="8" fill="#FFFFCC" fill-rule="evenodd"/><text font-family="Times New Roman,Times New Roman_MSFontService,sans-serif" font-weight="400" font-size="24" transform="translate(394.65 198)">Feed<tspan font-size="24" x="-17.3333" y="29">Forward</tspan></text><path d="M0 0 0.000104987 14.236" stroke="#000000" stroke-width="2" stroke-miterlimit="8" fill="none" fill-rule="evenodd" transform="matrix(1 0 0 -1 418 170.236)"/><path d="M344 129.167C344 126.313 346.313 124 349.167 124L485.833 124C488.687 124 491 126.313 491 129.167L491 149.833C491 152.687 488.687 155 485.833 155L349.167 155C346.313 155 344 152.687 344 149.833Z" stroke="#000000" stroke-width="2" stroke-miterlimit="8" fill="#66FFFF" fill-rule="evenodd"/><text font-family="Times New Roman,Times New Roman_MSFontService,sans-serif" font-weight="400" font-size="24" transform="translate(354.533 146)">Add &amp; Norm</text><path d="M0 0 97.7496 0.000104987" stroke="#000000" stroke-width="2" stroke-miterlimit="8" fill="none" fill-rule="evenodd" transform="matrix(-1 0 0 1 513.75 253)"/><path d="M514.05 253.692 514 136" stroke="#000000" stroke-width="2" stroke-miterlimit="8" fill="none" fill-rule="evenodd"/><path d="M4.84505e-06-1 16.3355-0.999921 16.3355 1.00008-4.84505e-06 1ZM16.3355 7.91466e-05 13.6689-3.99993 21.6689 0.000104987 13.6689 4.00007Z" transform="matrix(-1 0 0 1 514.669 137)"/><path d="M1-3.52711e-06 1.00009 24.4323-0.999914 24.4323-1 3.52711e-06ZM8.61756e-05 24.4323 4.00008 21.7657 0.000104987 29.7657-3.99992 21.7657Z" transform="matrix(1 0 0 -1 417 267.766)"/><path d="M208.5 269.5 208.5 269.5" stroke="#000000" stroke-width="0.666667" stroke-miterlimit="8" fill="none" fill-rule="evenodd"/><path d="M0 0 0.000104987 17.1242" stroke="#000000" stroke-width="2" stroke-miterlimit="8" fill="none" fill-rule="evenodd" transform="matrix(1 0 0 -1 206 275.124)"/><path d="M0 0 97.7496 0.000104987" stroke="#000000" stroke-width="2" stroke-miterlimit="8" fill="none" fill-rule="evenodd" transform="matrix(-1 0 0 1 302.75 259)"/><path d="M0 0 1.29134 144.946" stroke="#000000" stroke-width="2" stroke-miterlimit="8" fill="none" fill-rule="evenodd" transform="matrix(1 0 0 -1 301 402.946)"/><path d="M1-5.47909e-06 1.00008 13.828-0.999924 13.828-1 5.47909e-06ZM7.5765e-05 13.828 4.00006 11.1613 0.000104987 19.1614-3.99994 11.1614Z" transform="matrix(1 0 0 -1 383 403.161)"/><path d="M1-5.47909e-06 1.00008 13.828-0.999924 13.828-1 5.47909e-06ZM7.5765e-05 13.828 4.00006 11.1613 0.000104987 19.1614-3.99994 11.1614Z" transform="matrix(1 0 0 -1 371 403.161)"/><path d="M0 0 82.6672 0.000104987" stroke="#000000" stroke-width="2" stroke-miterlimit="8" fill="none" fill-rule="evenodd" transform="matrix(-1 0 0 1 382.667 402)"/><text font-family="Times New Roman,Times New Roman_MSFontService,sans-serif" font-weight="400" font-size="24" transform="translate(353.617 437)">Add &amp; Norm</text><path d="M0 0 0.000104987 14.236" stroke="#000000" stroke-width="2" stroke-miterlimit="8" fill="none" fill-rule="evenodd" transform="matrix(1 0 0 -1 418 458.236)"/><text font-family="Times New Roman,Times New Roman_MSFontService,sans-serif" font-weight="400" font-size="24" transform="translate(380.74 485)">Masked<tspan font-size="24" x="-18" y="29">Multi</tspan><tspan font-size="24" x="35.3333" y="29">-</tspan>Head<tspan font-size="24" x="-7.33334" y="58">Attention</tspan></text><path d="M1-6.50237e-06 1.00007 10.8126-0.99993 10.8126-1 6.50237e-06ZM7.03075e-05 10.8126 4.00005 8.14591 0.000104987 16.1459-3.99995 8.14596Z" transform="matrix(1 0 0 -1 420 565.146)"/><path d="M0 0 19.237 0.114541" stroke="#000000" stroke-width="2" stroke-miterlimit="8" fill="none" fill-rule="evenodd" transform="matrix(1 0 0 -1 429 575.115)"/><path d="M0 0 19.237 0.114541" stroke="#000000" stroke-width="2" stroke-miterlimit="8" fill="none" fill-rule="evenodd" transform="matrix(1 0 0 -1 179 575.115)"/><path d="M449 575.5C449 566.94 456.163 560 465 560 473.837 560 481 566.94 481 575.5 481 584.06 473.837 591 465 591 456.163 591 449 584.06 449 575.5Z" stroke="#000000" stroke-width="2" stroke-miterlimit="8" fill="#FFFFFF" fill-rule="evenodd"/><rect x="467" y="578" width="5" height="6" fill="#FFFFFF"/><rect x="471" y="579" width="5" height="6" fill="#FFFFFF"/><rect x="466" y="577" width="6" height="6" fill="#FFFFFF"/><path d="M453.458 565.729 457.895 568.268 455.029 573.275 450.593 570.736Z" fill="#FFFFFF" fill-rule="evenodd"/><rect x="457" y="566" width="5" height="5" fill="#FFFFFF"/><path d="M466.794 575.255 471.611 576.961 469.686 582.399 464.868 580.693Z" fill="#FFFFFF" fill-rule="evenodd"/><path d="M474.129 576.899 478.815 578.939 476.513 584.228 471.827 582.189Z" fill="#FFFFFF" fill-rule="evenodd"/><path d="M474.373 576.289 479.243 577.84 477.493 583.336 472.623 581.785Z" fill="#FFFFFF" fill-rule="evenodd"/><path d="M456.398 565.378 460.834 567.917 457.969 572.924 453.533 570.385Z" fill="#FFFFFF" fill-rule="evenodd"/><path d="M460.772 566.73 465.208 569.269 462.343 574.276 457.907 571.737Z" fill="#FFFFFF" fill-rule="evenodd"/><path d="M460.08 568.245 465.059 569.402 463.753 575.021 458.775 573.864Z" fill="#FFFFFF" fill-rule="evenodd"/><path d="M451.686 569.173 456.635 570.449 455.194 576.035 450.245 574.759Z" fill="#FFFFFF" fill-rule="evenodd"/><path d="M449 573.227 450.987 578.491C451.385 579.531 451.186 579.076 451.385 579.466 451.583 579.856 452.179 580.83 452.179 580.83 452.444 581.058 452.643 580.7 452.974 580.83 453.306 580.96 453.537 581.448 454.167 581.61 454.796 581.773 455.988 581.74 456.75 581.805 457.512 581.87 458.24 582 458.737 582 459.234 582 459.333 581.935 459.731 581.805 460.128 581.675 461.122 581.22 461.122 581.22 461.453 581.025 461.718 580.635 461.718 580.635 461.883 580.505 462.115 580.44 462.115 580.44 462.281 580.278 462.447 579.921 462.712 579.661 462.977 579.401 463.473 579.206 463.705 578.881 463.937 578.556 464.103 577.711 464.103 577.711 464.235 577.386 464.5 576.931 464.5 576.931 464.599 576.672 464.666 576.444 464.699 576.152 464.732 575.859 464.699 575.177 464.699 575.177 464.732 574.852 464.897 574.202 464.897 574.202 464.931 573.91 464.897 573.422 464.897 573.422 464.931 573.195 464.997 573.13 465.096 572.838 465.196 572.545 465.361 572.155 465.494 571.668 465.626 571.181 465.891 569.913 465.891 569.913 466.023 569.556 466.288 569.524 466.288 569.524 466.388 569.394 466.189 569.329 466.487 569.134 466.785 568.939 467.58 568.679 468.077 568.354 468.574 568.029 469.071 567.509 469.468 567.184 469.865 566.859 470.462 566.404 470.462 566.404 470.727 566.274 471.058 566.404 471.058 566.404L471.455 566.404C471.687 566.404 471.919 566.469 472.449 566.404 472.979 566.339 474.138 565.917 474.635 566.015 475.131 566.112 475.429 566.989 475.429 566.989 475.661 567.217 475.794 567.282 476.026 567.379 476.258 567.477 476.456 567.347 476.82 567.574 477.185 567.801 477.814 568.191 478.212 568.744 478.609 569.296 478.94 570.368 479.205 570.888 479.47 571.408 479.702 571.44 479.801 571.863 479.901 572.285 479.768 572.74 479.801 573.422 479.834 574.105 479.917 575.031 480 575.957" stroke="#000000" stroke-width="2" stroke-miterlimit="8" fill="none" fill-rule="evenodd"/><path d="M146 575.5C146 566.94 153.163 560 162 560 170.837 560 178 566.94 178 575.5 178 584.06 170.837 591 162 591 153.163 591 146 584.06 146 575.5Z" stroke="#000000" stroke-width="2" stroke-miterlimit="8" fill="#FFFFFF" fill-rule="evenodd"/><path d="M146 573.227 147.987 578.491C148.385 579.531 148.186 579.076 148.385 579.466 148.583 579.856 149.179 580.83 149.179 580.83 149.444 581.058 149.643 580.7 149.974 580.83 150.306 580.96 150.537 581.448 151.167 581.61 151.796 581.773 152.988 581.74 153.75 581.805 154.512 581.87 155.24 582 155.737 582 156.234 582 156.333 581.935 156.731 581.805 157.128 581.675 158.122 581.22 158.122 581.22 158.453 581.025 158.718 580.635 158.718 580.635 158.883 580.505 159.115 580.44 159.115 580.44 159.281 580.278 159.447 579.921 159.712 579.661 159.977 579.401 160.473 579.206 160.705 578.881 160.937 578.556 161.103 577.711 161.103 577.711 161.235 577.386 161.5 576.931 161.5 576.931 161.599 576.672 161.666 576.444 161.699 576.152 161.732 575.859 161.699 575.177 161.699 575.177 161.732 574.852 161.897 574.202 161.897 574.202 161.931 573.91 161.897 573.422 161.897 573.422 161.93 573.195 161.997 573.13 162.096 572.838 162.196 572.545 162.361 572.155 162.494 571.668 162.626 571.181 162.891 569.913 162.891 569.913 163.023 569.556 163.288 569.524 163.288 569.524 163.388 569.394 163.189 569.329 163.487 569.134 163.785 568.939 164.58 568.679 165.077 568.354 165.574 568.029 166.071 567.509 166.468 567.184 166.865 566.859 167.462 566.404 167.462 566.404 167.727 566.274 168.058 566.404 168.058 566.404L168.455 566.404C168.687 566.404 168.919 566.469 169.449 566.404 169.979 566.339 171.138 565.917 171.635 566.015 172.131 566.112 172.429 566.989 172.429 566.989 172.661 567.217 172.794 567.282 173.026 567.379 173.258 567.477 173.456 567.347 173.821 567.574 174.185 567.801 174.814 568.191 175.212 568.744 175.609 569.296 175.94 570.368 176.205 570.888 176.47 571.408 176.702 571.44 176.801 571.863 176.901 572.285 176.768 572.74 176.801 573.422 176.834 574.105 176.917 575.031 177 575.957" stroke="#000000" stroke-width="2" stroke-miterlimit="8" fill="none" fill-rule="evenodd"/><text font-family="Times New Roman,Times New Roman_MSFontService,sans-serif" font-weight="400" font-size="24" transform="translate(502.314 579)">Positional<tspan font-size="24" x="2" y="29">Encoding</tspan><tspan font-size="24" x="-468.154" y="-2">Positional</tspan><tspan font-size="24" x="-466.154" y="27">Encoding</tspan></text><path d="M1-0.000564876 1.00885 15.6681-0.991149 15.6692-1 0.000564876ZM0.00885085 15.6687 4.00734 12.9997 0.0118635 21.002-3.99265 13.0043Z" transform="matrix(1 0 0 -1 418 124.002)"/><text font-family="Times New Roman,Times New Roman_MSFontService,sans-serif" font-weight="700" font-size="27" transform="translate(145.789 221)">Encoder<tspan font-size="27" x="223.705" y="-139">Decoder</tspan></text></g></svg>